<svg xmlns="http://www.w3.org/2000/svg" width="640" height="401" viewBox="0 0 640 401"><path fill="rgb(240,239,240)" stroke="rgb(240,239,240)" stroke-width="0.5" opacity="1" d="M 281.5 126 L 281.5 127 L 281.5 126 Z "/><path fill="rgb(240,239,240)" stroke="rgb(240,239,240)" stroke-width="0.5" opacity="1" d="M 269.5 134 L 270 135.5 L 268.5 138 L 268 136.5 L 269.5 134 Z "/><path fill="rgb(240,239,240)" stroke="rgb(240,239,240)" stroke-width="0.5" opacity="1" d="M 268.5 146 L 269 147.5 L 268 147.5 L 268.5 146 Z "/><path fill="rgb(240,239,240)" stroke="rgb(240,239,240)" stroke-width="0.5" opacity="1" d="M 309.5 235 L 309.5 236 L 309.5 235 Z "/><path fill="rgb(240,239,240)" stroke="rgb(240,239,240)" stroke-width="0.5" opacity="1" d="M 303.5 241 L 303.5 242 L 303.5 241 Z "/><path fill="rgb(240,239,240)" stroke="rgb(240,239,240)" stroke-width="0.5" opacity="1" d="M 296.5 248 L 296.5 249 L 296.5 248 Z "/><path fill="rgb(240,239,240)" stroke="rgb(240,239,240)" stroke-width="0.5" opacity="1" d="M 268.5 278 L 269 279.5 L 268 279.5 L 268.5 278 Z "/><path fill="rgb(240,239,240)" stroke="rgb(240,239,240)" stroke-width="0.5" opacity="1" d="M 268.5 290 L 270 293.5 L 269 293.5 L 268.5 290 Z "/><path fill="rgb(252,252,252)" stroke="rgb(252,252,252)" stroke-width="0.5" opacity="1" d="M 282.5 126 L 291.5 130 L 301 138.5 Q 300.3 140.8 302.5 140 L 330 168.5 L 330 170 L 334 172.5 L 335.5 175 L 338 176.5 L 362 201.5 L 366 209.5 L 366 218.5 L 363 224.5 L 354 233.5 L 354 235 L 350 237.5 L 348.5 240 L 346 241.5 L 344.5 244 L 342 245.5 L 339.5 249 Q 337.3 248.3 338 250.5 L 334 253 L 331.5 257 Q 329.3 256.3 330 258.5 L 294.5 295 Q 292.3 294.3 293 296.5 Q 288.8 301.3 279.5 301 L 274.5 299 L 270 294.5 L 267 287.5 L 267 282.5 Q 269.6 281.1 269 276.5 L 271.5 274 L 284 262.5 L 285.5 259 Q 287.8 259.8 287 257.5 L 295.5 249 L 297 249 L 297 247.5 L 302.5 242 Q 304.8 242.8 304 240.5 L 308.5 236 L 310 236 L 310 234.5 L 330 213.5 L 318 201.5 L 319 200.5 L 307.5 189 L 281 163.5 Q 281.8 161.3 279.5 162 L 269 149.5 L 268 138.5 Q 270.6 137.1 270 132.5 L 273.5 129 L 282.5 126 Z "/><path fill="rgb(240,239,239)" stroke="rgb(240,239,239)" stroke-width="0.5" opacity="1" d="M 276.5 127 L 278 127.5 L 275.5 129 L 276.5 127 Z "/><path fill="rgb(238,238,240)" stroke="rgb(238,238,240)" stroke-width="0.5" opacity="1" d="M 287.5 127 Q 293.6 128.4 296 133.5 L 291.5 130 L 287.5 128 L 287.5 127 Z "/><path fill="rgb(238,238,240)" stroke="rgb(238,238,240)" stroke-width="0.5" opacity="1" d="M 286.5 258 L 286.5 259 L 286.5 258 Z "/><path fill="rgb(230,230,230)" stroke="rgb(230,230,230)" stroke-width="0.5" opacity="1" d="M 307.5 189 L 319 200.5 L 318.5 201 L 307 190.5 L 307.5 189 Z "/><path fill="rgb(230,230,230)" stroke="rgb(230,230,230)" stroke-width="0.5" opacity="1" d="M 283.5 261 L 284 262.5 L 272.5 274 L 272 273.5 L 283.5 261 Z "/></svg>